<svg width="22" height="18" viewBox="0 0 22 18" fill="none" xmlns="http://www.w3.org/2000/svg">
<path d="M19.3777 1.82072H8.70927C8.46913 1.82072 8.35982 1.69401 8.1091 1.33117C7.81536 0.906016 7.41301 0.324371 6.46268 0.324371H1.88556C0.894671 0.324371 0.088562 1.29516 0.088562 2.48823V5.19876V5.456V15.2778C0.088562 16.2781 0.894671 17.0913 1.88556 17.0913H19.3777C20.3686 17.0913 21.1747 16.2777 21.1747 15.2778V5.47781V5.19876V3.98458C21.1743 2.79151 20.3682 1.82072 19.3777 1.82072ZM20.2928 15.2782C20.2928 15.801 19.882 16.2261 19.3773 16.2261H1.8852C1.38059 16.2261 0.969781 15.8006 0.969781 15.2782V5.456V5.19876C0.969781 4.67597 1.38059 4.25082 1.8852 4.25082H19.3773C19.882 4.25082 20.2928 4.67632 20.2928 5.19876V5.47781V15.2782ZM1.8852 1.18991H6.46232C6.92427 1.18991 7.09423 1.40491 7.37951 1.81726C7.63305 2.18425 7.98039 2.68626 8.70927 2.68626H19.3777C19.7853 2.68626 20.1369 3.08995 20.2508 3.62347C19.9913 3.47599 19.6961 3.38528 19.3777 3.38528H1.8852C1.5495 3.38528 1.23884 3.48429 0.969781 3.64667V2.48823C0.970134 1.78471 1.38906 1.18991 1.8852 1.18991Z" fill="#0477D4"/>
<path d="M5.9111 10.0929H14.6531" stroke="#0477D4" stroke-width="1.28229" stroke-miterlimit="10"/>
<path d="M12.5205 12.6771L12.0818 12.2142L14.406 10.0936L12.0818 7.97232L12.5205 7.50943L15.351 10.0936L12.5205 12.6771Z" fill="#0477D4"/>
</svg>
