<svg width="21" height="20" viewBox="0 0 21 20" fill="none" xmlns="http://www.w3.org/2000/svg">
<path d="M4.06024 18.4799C4.00189 18.4799 3.94579 18.4581 3.90091 18.4166L1.87234 16.4438C1.78482 16.3588 1.78482 16.2215 1.87234 16.1365C1.95985 16.0515 2.10123 16.0515 2.18874 16.1365L4.21956 18.1071C4.30708 18.1921 4.30708 18.3294 4.21956 18.4145C4.17693 18.4581 4.11858 18.4799 4.06024 18.4799Z" fill="#0477D4"/>
<path d="M18.0807 7.33627C17.9618 7.33627 17.8474 7.2905 17.7643 7.20766L13.4087 2.97868C13.2337 2.80865 13.2337 2.53181 13.4087 2.36177L14.5779 1.22605C15.3117 0.513231 16.5032 0.513231 17.237 1.22605L19.5663 3.48878C19.9208 3.8332 20.1161 4.29097 20.1161 4.78145C20.1161 5.26974 19.9208 5.7297 19.5663 6.07412L18.3972 7.20984C18.3141 7.2905 18.1997 7.33627 18.0807 7.33627ZM14.3602 2.66914L18.0807 6.28339L18.9312 5.45721C19.1152 5.27846 19.2185 5.03867 19.2185 4.78145C19.2185 4.52422 19.1175 4.28443 18.9312 4.10568L16.602 1.84296C16.2182 1.4702 15.5944 1.4702 15.2107 1.84296L14.3602 2.66914Z" fill="#0477D4"/>
<path d="M0.772762 19.899C0.656074 19.899 0.54163 19.8532 0.454114 19.7704C0.330694 19.6505 0.290302 19.4717 0.35089 19.3126L2.82827 12.7184C2.85071 12.6596 2.88661 12.6051 2.93149 12.5593L13.4087 2.36181C13.5838 2.19178 13.8687 2.19178 14.0438 2.36181C14.2188 2.53184 14.2188 2.80868 14.0438 2.97871L3.63835 13.1086L1.5245 18.7371L7.33871 16.6967L17.7643 6.59296C17.9394 6.42293 18.2243 6.42293 18.3994 6.59296C18.5744 6.763 18.5744 7.03984 18.3994 7.20987L7.90195 17.3834C7.85482 17.4292 7.79872 17.4641 7.73814 17.4837L0.925354 19.8728C0.875986 19.8903 0.824374 19.899 0.772762 19.899Z" fill="#0477D4"/>
<path d="M5.68938 14.9244C5.63103 14.9244 5.57493 14.9026 5.53005 14.8612C5.44254 14.7762 5.44254 14.6389 5.53005 14.5539L15.7649 4.6114C15.8525 4.52638 15.9938 4.52638 16.0813 4.6114C16.1689 4.69642 16.1689 4.83375 16.0813 4.91876L5.8487 14.8612C5.80382 14.9048 5.74772 14.9244 5.68938 14.9244Z" fill="#0477D4"/>
<path d="M7.83018 17.0041C7.77184 17.0041 7.71574 16.9823 7.67086 16.9409L3.38931 12.7816C3.30179 12.6966 3.30179 12.5593 3.38931 12.4743C3.47682 12.3893 3.61819 12.3893 3.70571 12.4743L7.98726 16.6335C8.07478 16.7185 8.07478 16.8559 7.98726 16.9409C7.94463 16.9823 7.88628 17.0041 7.83018 17.0041Z" fill="#0477D4"/>
</svg>
