<svg width="19" height="18" viewBox="0 0 19 18" fill="none" xmlns="http://www.w3.org/2000/svg">
<path d="M9.63145 0.655426C9.24194 0.655426 8.92619 0.965439 8.92619 1.34786V8.61842H1.52099C1.13148 8.61842 0.815735 8.92842 0.815735 9.31085C0.815735 9.69328 1.13148 10.0033 1.52099 10.0033H8.92619V17.2738C8.92619 17.6563 9.24194 17.9663 9.63145 17.9663C10.021 17.9663 10.3367 17.6563 10.3367 17.2738V10.0033H17.7419C18.1314 10.0033 18.4472 9.69328 18.4472 9.31085C18.4472 8.92842 18.1314 8.61842 17.7419 8.61842H10.3367V1.34786C10.3367 0.965439 10.021 0.655426 9.63145 0.655426Z" fill="#0477D4"/>
</svg>
