<svg width="18" height="21" viewBox="0 0 18 21" fill="none" xmlns="http://www.w3.org/2000/svg">
<path d="M16.7792 1.53677H1.42383C1.09203 1.53677 0.822754 1.26301 0.822754 0.924775C0.822754 0.586543 1.09203 0.312775 1.42383 0.312775H16.7792C17.111 0.312775 17.3803 0.586543 17.3803 0.924775C17.3803 1.26301 17.111 1.53677 16.7792 1.53677Z" fill="#0477D4"/>
<path d="M9.10144 20.2134C8.76965 20.2134 8.50037 19.9396 8.50037 19.6014V5.07535C8.50037 4.73712 8.76965 4.46335 9.10144 4.46335C9.43323 4.46335 9.70251 4.73712 9.70251 5.07535V19.6018C9.70251 19.9396 9.43323 20.2134 9.10144 20.2134Z" fill="#0477D4"/>
<path d="M15.4628 10.9122C15.3246 10.9122 15.1863 10.8641 15.0725 10.7657L9.13233 5.59842L4.06169 10.7339C3.82728 10.9718 3.4462 10.9718 3.21178 10.7315C2.97776 10.492 2.97856 10.1044 3.21418 9.8661L8.67792 4.3324C8.89991 4.10759 9.25415 4.09454 9.49217 4.30098L15.8539 9.83469C16.1064 10.0542 16.136 10.4406 15.9204 10.6976C15.8014 10.8396 15.6327 10.9122 15.4628 10.9122Z" fill="#0477D4"/>
</svg>
